<svg xmlns="http://www.w3.org/2000/svg"  viewBox="0 0 24 24" width="72px" height="72px"><path d="M 15.464844 2.1875 A 1.0001 1.0001 0 0 0 14.800781 2.453125 L 7.578125 9.1191406 L 5.1328125 7.3496094 A 1.0001 1.0001 0 0 0 4.5722656 7.1601562 A 1.0001 1.0001 0 0 0 3.84375 7.4492188 L 2.5117188 8.7695312 A 1.0001 1.0001 0 0 0 2.5371094 10.214844 L 4.4628906 11.994141 L 2.5371094 13.771484 A 1.0001 1.0001 0 0 0 2.5078125 15.212891 L 3.8398438 16.546875 A 1.0001 1.0001 0 0 0 5.1328125 16.650391 L 7.5859375 14.875 L 11.320312 18.322266 A 1.0001 1.0001 0 0 0 12.998047 17.585938 L 12.996094 13.546875 A 1.0001 1.0001 0 0 0 12.582031 12.736328 L 11.558594 11.996094 L 14.994141 9.5097656 L 14.994141 20.613281 A 1.0001 1.0001 0 0 0 16.509766 21.470703 L 20.509766 19.070312 A 1.0001 1.0001 0 0 0 20.994141 18.212891 L 20.994141 5.7734375 A 1.0001 1.0001 0 0 0 20.509766 4.9160156 L 16.509766 2.515625 A 1.0001 1.0001 0 0 0 16.0625 2.375 A 1.0001 1.0001 0 0 0 15.464844 2.1875 z M 18.994141 6.5722656 L 18.994141 17.646484 L 16.994141 18.847656 L 16.994141 8.0605469 L 18.8125 6.7441406 A 1.0001 1.0001 0 0 0 18.994141 6.5722656 z"/></svg>